<svg width="240" height="59" viewBox="0 0 240 59" fill="none" xmlns="http://www.w3.org/2000/svg">
<path d="M219.707 42.9764V37.2588H220.446L222.02 41.2294V37.2588H222.765V42.9764H222.02L220.464 38.9706V42.9764H219.707Z" fill="#095A94"/>
<path d="M229.435 42.9764V37.9705H228.337V37.2588H231.331V37.9705H230.234V42.9764H229.435Z" fill="#095A94"/>
<path d="M236.586 40.1238C236.586 39.0767 236.721 38.3238 236.974 37.8708C237.238 37.4179 237.667 37.1885 238.266 37.1885C238.864 37.1885 239.287 37.412 239.54 37.8708C239.798 38.3238 239.939 39.0767 239.939 40.1297C239.939 41.1826 239.798 41.9238 239.54 42.3708C239.287 42.8238 238.859 43.0532 238.266 43.0532C237.673 43.0532 237.238 42.8238 236.974 42.3708C236.721 41.9179 236.586 41.1708 236.586 40.1297M237.397 40.112C237.397 40.9179 237.467 41.4943 237.596 41.8296C237.731 42.1591 237.966 42.3296 238.277 42.3296C238.589 42.3296 238.806 42.1649 238.947 41.8532C239.07 41.5414 239.129 40.9591 239.129 40.112C239.129 39.2649 239.064 38.7179 238.941 38.3944C238.8 38.0649 238.583 37.9061 238.271 37.9061C237.96 37.9061 237.731 38.0708 237.596 38.3944C237.467 38.7238 237.402 39.2944 237.402 40.1061" fill="#095A94"/>
<path d="M62.1409 42.9764V37.2588H63.1859C63.9903 37.2588 64.5481 37.4706 64.8769 37.8941C65.2056 38.3235 65.3642 39.0588 65.3642 40.1117C65.3642 41.1647 65.1998 41.9 64.8769 42.3294C64.5481 42.7588 63.9844 42.9764 63.1859 42.9764H62.1409ZM62.9394 42.2353H63.3503C63.8024 42.2353 64.1195 42.0823 64.2956 41.7706C64.4717 41.4529 64.5657 40.9058 64.5657 40.1058C64.5657 39.3058 64.4776 38.7588 64.2956 38.447C64.1195 38.1411 63.8024 37.9764 63.3503 37.9764H62.9394V42.2353Z" fill="#095A94"/>
<path d="M71.1708 42.9764V37.2588H73.5428V37.947H71.981V39.647H73.4018V40.3294H71.981V42.2647H73.5428V42.9764H71.1708Z" fill="#095A94"/>
<path d="M79.1908 41.9708C79.3846 42.0826 79.5607 42.1649 79.7193 42.2238C79.8778 42.2767 80.0245 42.3061 80.1713 42.3061C80.4179 42.3061 80.5999 42.2355 80.7467 42.1002C80.8876 41.965 80.9639 41.7826 80.9639 41.5473C80.9639 41.212 80.6821 40.8297 80.142 40.3944C80.0833 40.3414 80.0246 40.3002 80.0011 40.2767C79.6488 40.0002 79.4022 39.7355 79.2613 39.5002C79.1145 39.2591 79.0441 38.9944 79.0441 38.6944C79.0441 38.2649 79.185 37.9061 79.4727 37.6179C79.7545 37.3297 80.1009 37.1885 80.5177 37.1885C80.6998 37.1885 80.8817 37.212 81.052 37.2532C81.2223 37.2944 81.3926 37.3591 81.5569 37.4473V38.2179C81.4043 38.1061 81.2399 38.0297 81.099 37.9826C80.9522 37.9355 80.8113 37.9061 80.6587 37.9061C80.4062 37.9061 80.2124 37.9826 80.0657 38.1238C79.913 38.2708 79.8308 38.4591 79.8308 38.6944C79.8308 39.0238 80.1244 39.4179 80.7056 39.8591C80.7526 39.9002 80.7996 39.9297 80.823 39.9532C81.1577 40.2179 81.3984 40.4649 81.5452 40.712C81.6802 40.9532 81.7507 41.2296 81.7507 41.5414C81.7507 41.9826 81.6098 42.3414 81.3162 42.6238C81.0285 42.9061 80.6528 43.0532 80.2124 43.0532C80.048 43.0532 79.8778 43.0297 79.7075 42.9826C79.5373 42.9355 79.3611 42.865 79.1732 42.765V41.9767L79.1908 41.9708Z" fill="#095A94"/>
<path d="M88.2913 37.2588H87.4987V42.9764H88.2913V37.2588Z" fill="#095A94"/>
<path d="M97.5266 39.9061C97.5266 40.0238 97.5384 40.1414 97.5443 40.2532C97.5443 40.3708 97.5501 40.4826 97.5501 40.5826C97.5501 41.4238 97.4151 42.0414 97.1274 42.4473C96.8514 42.8473 96.417 43.0473 95.8299 43.0473C95.2427 43.0473 94.7965 42.8179 94.5206 42.3649C94.2505 41.9061 94.1213 41.1591 94.1213 40.1238C94.1213 39.0885 94.2505 38.312 94.5265 37.8649C94.7965 37.412 95.2369 37.1885 95.8592 37.1885C96.2878 37.1885 96.646 37.2885 96.9102 37.4885C97.1802 37.6885 97.3622 37.9885 97.4562 38.3944L96.7575 38.7238C96.6988 38.4414 96.599 38.2355 96.4463 38.1002C96.2937 37.9649 96.1058 37.9002 95.8651 37.9002C95.5187 37.9002 95.2721 38.0649 95.1253 38.3826C94.9844 38.7002 94.9198 39.2767 94.9198 40.112C94.9198 40.9473 94.9903 41.512 95.1253 41.8355C95.2721 42.1591 95.5187 42.3238 95.8651 42.3238C96.1704 42.3238 96.3935 42.2002 96.5462 41.9591C96.6988 41.712 96.7751 41.3473 96.7751 40.8591V40.6944C96.7751 40.6591 96.7751 40.6238 96.7751 40.5944H95.9355V39.9238H97.5208L97.5266 39.9061Z" fill="#095A94"/>
<path d="M103.339 42.9764V37.2588H104.073L105.635 41.2294V37.2588H106.398V42.9764H105.646L104.091 38.9706V42.9764H103.339Z" fill="#095A94"/>
<path d="M118.98 42.9764V37.2588H120.025C120.835 37.2588 121.399 37.4706 121.728 37.8941C122.057 38.3235 122.221 39.0588 122.221 40.1117C122.221 41.1647 122.057 41.9 121.728 42.3294C121.399 42.7588 120.835 42.9764 120.025 42.9764H118.98ZM119.784 42.2353H120.195C120.648 42.2353 120.959 42.0823 121.147 41.7706C121.329 41.4529 121.423 40.9058 121.423 40.1058C121.423 39.3058 121.334 38.7588 121.152 38.447C120.97 38.1411 120.659 37.9764 120.201 37.9764H119.79V42.2353H119.784Z" fill="#095A94"/>
<path d="M127.863 40.1238C127.863 39.0767 127.998 38.3238 128.263 37.8708C128.521 37.4179 128.944 37.1885 129.542 37.1885C130.141 37.1885 130.564 37.412 130.828 37.8708C131.087 38.3238 131.216 39.0767 131.216 40.1297C131.216 41.1826 131.087 41.9238 130.828 42.3708C130.564 42.8238 130.135 43.0532 129.542 43.0532C128.949 43.0532 128.521 42.8238 128.263 42.3708C127.998 41.9179 127.863 41.1708 127.863 40.1297M128.674 40.112C128.674 40.9179 128.738 41.4943 128.873 41.8296C129.02 42.1591 129.237 42.3296 129.554 42.3296C129.871 42.3296 130.094 42.1649 130.218 41.8532C130.341 41.5414 130.417 40.9591 130.417 40.112C130.417 39.2649 130.341 38.7179 130.212 38.3944C130.088 38.0649 129.86 37.9061 129.542 37.9061C129.225 37.9061 129.008 38.0708 128.867 38.3944C128.738 38.7238 128.674 39.2944 128.674 40.1061" fill="#095A94"/>
<path d="M146.076 42.8468C145.952 42.9115 145.806 42.9645 145.682 42.9939C145.553 43.0233 145.4 43.0468 145.248 43.0468C144.649 43.0468 144.197 42.8115 143.903 42.3292C143.598 41.8527 143.451 41.1292 143.451 40.1645C143.451 39.1998 143.61 38.441 143.927 37.9351C144.244 37.4292 144.725 37.1821 145.342 37.1821C145.477 37.1821 145.612 37.1939 145.729 37.2233C145.853 37.2468 145.97 37.2821 146.076 37.3351V38.0645C145.97 38.0057 145.858 37.9704 145.753 37.941C145.641 37.9174 145.553 37.8998 145.465 37.8998C145.036 37.8998 144.725 38.0821 144.537 38.4351C144.338 38.7939 144.238 39.3704 144.238 40.1527C144.238 40.8821 144.332 41.4233 144.52 41.7762C144.708 42.1233 144.989 42.3057 145.383 42.3057C145.488 42.3057 145.6 42.2821 145.723 42.2468C145.829 42.2115 145.952 42.1586 146.081 42.088V42.8409L146.076 42.8468Z" fill="#095A94"/>
<path d="M151.589 40.1238C151.589 39.0767 151.718 38.3238 151.982 37.8708C152.246 37.4179 152.663 37.1885 153.262 37.1885C153.861 37.1885 154.284 37.412 154.548 37.8708C154.812 38.3238 154.935 39.0767 154.935 40.1297C154.935 41.1826 154.812 41.9238 154.548 42.3708C154.284 42.8238 153.855 43.0532 153.262 43.0532C152.669 43.0532 152.246 42.8238 151.982 42.3708C151.718 41.9179 151.589 41.1708 151.589 40.1297M152.387 40.112C152.387 40.9179 152.452 41.4943 152.581 41.8296C152.728 42.1591 152.951 42.3296 153.268 42.3296C153.585 42.3296 153.808 42.1649 153.931 41.8532C154.067 41.5414 154.131 40.9591 154.131 40.112C154.131 39.2649 154.067 38.7179 153.931 38.3944C153.802 38.0649 153.573 37.9061 153.262 37.9061C152.951 37.9061 152.728 38.0708 152.581 38.3944C152.452 38.7238 152.387 39.2944 152.387 40.1061" fill="#095A94"/>
<path d="M160.777 42.9764V37.2588H161.511L163.079 41.2294V37.2588H163.83V42.9764H163.085L161.529 38.9706V42.9764H160.777Z" fill="#095A94"/>
<path d="M169.854 42.9764V37.2588H170.652V39.4294H172.073V37.2588H172.866V42.9764H172.073V40.1529H170.652V42.9764H169.854Z" fill="#095A94"/>
<path d="M178.872 42.9764V37.2588H181.233V37.947H179.665V39.647H181.092V40.3294H179.665V42.2647H181.233V42.9764H178.872Z" fill="#095A94"/>
<path d="M189.476 42.8468C189.347 42.9115 189.206 42.9645 189.076 42.9939C188.947 43.0233 188.795 43.0468 188.648 43.0468C188.043 43.0468 187.597 42.8115 187.303 42.3292C186.998 41.8527 186.851 41.1292 186.851 40.1645C186.851 39.1998 187.01 38.441 187.327 37.9351C187.644 37.4292 188.125 37.1821 188.748 37.1821C188.883 37.1821 189.018 37.1939 189.129 37.2233C189.259 37.2468 189.37 37.2821 189.482 37.3351V38.0645C189.364 38.0057 189.264 37.9704 189.159 37.941C189.047 37.9174 188.959 37.8998 188.871 37.8998C188.448 37.8998 188.137 38.0821 187.943 38.4351C187.744 38.7939 187.644 39.3704 187.644 40.1527C187.644 40.8821 187.738 41.4233 187.926 41.7762C188.114 42.1233 188.39 42.3057 188.783 42.3057C188.889 42.3057 189 42.2821 189.118 42.2468C189.223 42.2115 189.352 42.1586 189.482 42.088V42.8409L189.476 42.8468Z" fill="#095A94"/>
<path d="M195.952 37.2588H195.147V42.9764H195.952V37.2588Z" fill="#095A94"/>
<path d="M201.747 42.9764L202.257 37.2588H202.974L203.766 41.2117L204.588 37.2588H205.287L205.804 42.9764H205.064L204.829 38.9647L204.036 42.9764H203.502L202.709 38.9647L202.475 42.9764H201.747Z" fill="#095A94"/>
<path d="M211.552 42.9764V37.2588H213.918V37.947H212.344V39.647H213.783V40.3294H212.344V42.2647H213.918V42.9764H211.552Z" fill="#095A94"/>
<mask id="mask0_1246_132" style="mask-type:luminance" maskUnits="userSpaceOnUse" x="61" y="6" width="179" height="26">
<path d="M239.71 6.24707H61.6066V31.9059H239.71V6.24707Z" fill="white"/>
</mask>
<g mask="url(#mask0_1246_132)">
<path d="M102.141 11.853C101.161 11.853 100.368 12.653 100.368 13.6353V30.1177C100.368 31.1 101.161 31.9 102.141 31.9C103.122 31.9 103.897 31.1 103.897 30.1177V29.2177V14.5353V13.6353C103.897 12.653 103.116 11.853 102.141 11.853ZM91.3971 14.3648C90.5693 13.5412 89.6064 12.9059 88.5202 12.4353C87.4458 11.9706 86.2774 11.7353 85.021 11.7353C83.5532 11.7353 82.1852 12.0647 80.9287 12.7177C79.6782 13.3765 78.6331 14.2648 77.8052 15.3883C76.9774 14.2589 75.9441 13.3765 74.7052 12.7177C73.4605 12.0589 72.0808 11.7353 70.5895 11.7353C69.3624 11.7353 68.1999 11.9706 67.1138 12.4353C66.0158 12.9059 65.053 13.5471 64.2369 14.3648C63.4208 15.1824 62.7867 16.1294 62.3229 17.2177C61.8473 18.3 61.6183 19.4706 61.6183 20.7294V29.7706H61.6653V30.0706C61.6653 31.053 62.452 31.853 63.4208 31.853C64.3895 31.853 65.188 31.053 65.188 30.0706V20.7294C65.188 19.9765 65.3289 19.2765 65.6107 18.6236C65.8808 17.9706 66.2801 17.3883 66.7732 16.8942C67.2664 16.3942 67.8418 16.0118 68.4935 15.7294C69.1511 15.4471 69.8439 15.3059 70.5895 15.3059C71.3352 15.3059 72.0573 15.4471 72.7266 15.7294C73.396 16.0118 73.9772 16.3942 74.4704 16.8942C74.9636 17.3883 75.3452 17.9706 75.627 18.6236C75.903 19.2824 76.0439 19.9824 76.0439 20.7294V29.0295C76.0439 30.0118 76.8482 30.8059 77.8346 30.8059C78.821 30.8059 79.6136 30.0118 79.6136 29.0295V20.7294C79.6136 19.9765 79.7662 19.2765 80.0363 18.6236C80.324 17.9706 80.7056 17.3883 81.1988 16.8942C81.692 16.3942 82.2674 16.0118 82.9191 15.7294C83.5708 15.4471 84.2812 15.3059 85.0268 15.3059C85.7725 15.3059 86.477 15.4471 87.1463 15.7294C87.8157 16.0118 88.3969 16.3942 88.8901 16.8942C89.3891 17.3883 89.7708 17.9706 90.0585 18.6236C90.3403 19.2824 90.4812 19.9824 90.4812 20.7294V29.7706H90.4871V30.0706C90.4871 31.053 91.2679 31.853 92.2425 31.853C93.2172 31.853 94.0098 31.053 94.0098 30.0706V29.7706H94.0509V20.7294C94.0509 19.4706 93.8102 18.3 93.3405 17.2177C92.8766 16.1294 92.2308 15.1824 91.403 14.3648M140.075 14.4765C139.247 13.6647 138.285 13.0177 137.216 12.5471C136.136 12.0824 134.961 11.8412 133.705 11.8412C132.237 11.8412 130.869 12.1706 129.613 12.8295C128.362 13.4883 127.317 14.3706 126.483 15.4942C125.656 14.3706 124.622 13.4824 123.383 12.8295C122.139 12.1706 120.765 11.8412 119.279 11.8412C118.041 11.8412 116.884 12.0824 115.792 12.5471C114.694 13.0118 113.737 13.6589 112.921 14.4765C112.105 15.2883 111.465 16.2412 111.001 17.3294C110.526 18.4118 110.291 19.5883 110.291 20.8412V30.0706C110.291 31.053 111.095 31.853 112.081 31.853C113.068 31.853 113.86 31.053 113.86 30.0706V20.8412C113.86 20.0942 113.995 19.3883 114.283 18.7295C114.571 18.0765 114.952 17.5 115.451 17.0059C115.945 16.5118 116.514 16.1236 117.172 15.8412C117.829 15.5589 118.534 15.4177 119.285 15.4177C120.037 15.4177 120.736 15.5589 121.405 15.8412C122.074 16.1236 122.655 16.5118 123.149 17.0059C123.642 17.5 124.023 18.0765 124.317 18.7295C124.587 19.3824 124.74 20.0883 124.74 20.8412V29.0295C124.74 30.0118 125.532 30.8059 126.519 30.8059C127.505 30.8059 128.298 30.0118 128.298 29.0295V20.8412C128.298 20.0942 128.444 19.3883 128.72 18.7295C129.008 18.0765 129.39 17.5 129.883 17.0059C130.376 16.5118 130.951 16.1236 131.609 15.8412C132.272 15.5589 132.971 15.4177 133.717 15.4177C134.462 15.4177 135.167 15.5589 135.836 15.8412C136.506 16.1236 137.087 16.5118 137.58 17.0059C138.073 17.5 138.467 18.0765 138.743 18.7295C139.03 19.3824 139.165 20.0883 139.165 20.8412V29.8765H139.171V30.0706C139.171 31.053 139.958 31.853 140.944 31.853C141.931 31.853 142.723 31.053 142.723 30.0706V29.8765H142.735V20.8412C142.735 19.5883 142.5 18.4118 142.025 17.3294C141.561 16.2412 140.915 15.2942 140.087 14.4765M216.712 29.8471C216.712 29.6471 216.706 29.4412 216.689 29.2412V29.2059C216.607 27.9765 216.29 26.8236 215.738 25.7471C215.08 24.4883 214.188 23.4412 213.072 22.6118C214.188 21.7824 215.086 20.7471 215.738 19.5C216.389 18.2589 216.718 16.8824 216.718 15.3824V13.5824C216.718 12.6 215.931 11.8 214.951 11.8C213.97 11.8 213.195 12.5942 213.195 13.5824V13.6177H213.148V15.3824C213.148 16.1353 213.013 16.8412 212.726 17.5118C212.456 18.1765 212.056 18.7589 211.563 19.253C211.064 19.7471 210.495 20.1412 209.843 20.4177C209.191 20.7 208.493 20.8412 207.741 20.8412C206.725 20.8412 205.757 21 204.835 21.3236C203.913 21.6471 203.062 22.1059 202.281 22.6883V8.92358V8.02356C202.281 7.03533 201.482 6.24121 200.502 6.24121C199.521 6.24121 198.723 7.03533 198.723 8.02356V8.75886H198.717V30.0942H198.723C198.723 31.0765 199.515 31.8765 200.502 31.8765C201.488 31.8765 202.275 31.0765 202.275 30.0942V29.7648C202.287 29.0412 202.433 28.3589 202.698 27.7294C202.979 27.0706 203.361 26.4942 203.86 26C204.359 25.5059 204.935 25.1236 205.61 24.8353C206.273 24.553 206.995 24.4177 207.735 24.4177C208.475 24.4177 209.185 24.553 209.837 24.8353C210.495 25.1236 211.064 25.5059 211.557 26C212.051 26.4942 212.45 27.0706 212.72 27.7294C212.937 28.2177 213.066 28.7353 213.113 29.2765V30.0883C213.113 31.0706 213.923 31.8706 214.916 31.8706C215.908 31.8706 216.712 31.0706 216.712 30.0883V29.9412V29.8353V29.8471ZM239.035 19.1C238.571 18.0177 237.919 17.0648 237.103 16.253C236.293 15.4412 235.342 14.7942 234.267 14.3294C233.187 13.8589 232.013 13.6295 230.756 13.6295C229.5 13.6295 228.361 13.8647 227.263 14.3294C226.177 14.7942 225.202 15.4412 224.374 16.253C223.546 17.0648 222.9 18.0177 222.437 19.1C221.955 20.1883 221.726 21.3589 221.726 22.6118C221.726 23.8647 221.955 25.0059 222.437 26.1059C222.9 27.2 223.54 28.1648 224.374 28.9942C225.202 29.8236 226.171 30.4706 227.263 30.9412C228.361 31.4118 229.523 31.6412 230.756 31.6412H239.733V22.6C239.733 21.3471 239.498 20.1706 239.035 19.0883M236.169 28.0647H230.756C230.005 28.0647 229.3 27.9295 228.631 27.6471C227.961 27.3589 227.38 26.9765 226.887 26.4824C226.394 25.9883 226.006 25.4059 225.725 24.7353C225.437 24.0647 225.302 23.353 225.302 22.6059C225.302 21.8589 225.437 21.153 225.725 20.4942C226.012 19.8412 226.394 19.2648 226.887 18.7706C227.38 18.2765 227.961 17.8883 228.631 17.6059C229.3 17.3236 229.999 17.1824 230.756 17.1824C231.514 17.1824 232.201 17.3236 232.864 17.6059C233.516 17.8824 234.091 18.2765 234.59 18.7706C235.083 19.2648 235.465 19.8412 235.753 20.4942C236.029 21.153 236.169 21.853 236.169 22.6059V28.0706V28.0647ZM180.951 28.0765V28.0647H179.183C178.432 28.0647 177.727 27.9295 177.064 27.6471C176.395 27.3589 175.813 26.9765 175.32 26.4824C174.827 25.9883 174.428 25.4059 174.158 24.7353C173.87 24.0647 173.735 23.353 173.735 22.6059V20.8H179.307H179.63C180.61 20.8 181.403 20 181.403 19.0177C181.403 18.0353 180.61 17.2353 179.63 17.2353H179.307H173.735V8.2118H173.729V8.08828C173.729 7.07063 172.936 6.2471 171.95 6.2471C170.964 6.2471 170.159 7.07063 170.159 8.08828V9.02357V22.6177C170.159 23.853 170.388 25.0118 170.864 26.1118C171.328 27.2059 171.974 28.1706 172.807 29C173.635 29.8294 174.592 30.4765 175.69 30.9471C176.794 31.4177 177.951 31.6471 179.183 31.6471H180.951C181.919 31.6294 182.694 30.8412 182.694 29.8647C182.694 28.8883 181.914 28.1 180.951 28.0824M161.699 25.7059L161.282 26.1353L160.865 26.553C160.008 27.4118 159.01 27.9236 157.877 28.1C156.744 28.2765 155.669 28.1059 154.654 27.5942L164.629 17.5942L163.384 16.3471C162.509 15.4648 161.511 14.8 160.396 14.3589C159.292 13.9118 158.153 13.6942 157.008 13.6942C155.863 13.6942 154.736 13.9118 153.62 14.3589C152.516 14.8 151.524 15.4648 150.632 16.3471C149.757 17.2295 149.099 18.2177 148.671 19.3177C148.242 20.4118 148.031 21.5412 148.031 22.6883C148.031 23.8353 148.236 24.9706 148.671 26.0824C149.099 27.2 149.757 28.1942 150.632 29.0765C151.489 29.9353 152.464 30.5942 153.561 31.0471C154.665 31.5 155.81 31.7295 157.008 31.7295C158.206 31.7295 159.368 31.5059 160.46 31.0471C161.546 30.5942 162.533 29.9353 163.378 29.0765L163.801 28.6589H163.795L164.229 28.2294C164.928 27.5353 164.928 26.4 164.229 25.7059C163.525 25.0059 162.404 25.0059 161.705 25.7059M153.585 23.6C152.927 24.2589 152.446 24.7471 152.111 25.0647C151.741 24.3118 151.548 23.5236 151.548 22.6942C151.548 21.2 152.094 19.9118 153.162 18.8412C154.014 17.9824 155.006 17.4706 156.151 17.3118C157.284 17.153 158.358 17.3294 159.38 17.8412C158.998 18.2177 158.476 18.7353 157.795 19.4059C157.108 20.0765 156.409 20.7824 155.669 21.5177C154.924 22.253 154.243 22.9471 153.585 23.6059M190.703 11.8118C189.722 11.8118 188.936 12.6059 188.936 13.5942V13.6295V29.3177V30.0765C188.936 31.0589 189.722 31.8589 190.703 31.8589C191.683 31.8589 192.458 31.0589 192.458 30.0765V13.5942C192.458 12.6118 191.672 11.8118 190.703 11.8118ZM155.834 11.7236L156.18 11.5824L160.39 10.0059L160.642 9.91768C161.212 9.72356 161.523 9.07651 161.341 8.47063C161.159 7.87063 160.554 7.54122 159.99 7.73533L159.715 7.83534L155.616 9.34122L155.499 9.38827L155.1 9.54122C154.542 9.76475 154.26 10.4353 154.454 11.0353C154.659 11.6412 155.276 11.9412 155.84 11.7236" fill="#095A94"/>
</g>
<mask id="mask1_1246_132" style="mask-type:luminance" maskUnits="userSpaceOnUse" x="33" y="11" width="18" height="17">
<path d="M50.3573 11.3057H33.3425V27.7233H50.3573V11.3057Z" fill="white"/>
</mask>
<g mask="url(#mask1_1246_132)">
<path d="M45.9599 13.9997C46.1301 12.7468 45.2495 11.5468 43.9989 11.335C42.7425 11.1291 41.5271 11.9762 41.2864 13.2233L40.6171 16.6527C40.3764 17.8997 39.2197 19.3174 38.0396 19.7939L34.8163 21.1174C33.6362 21.6056 33.0549 22.9703 33.4953 24.1527C33.9474 25.3409 35.286 25.9762 36.4896 25.5644L39.7892 24.4233C40.9928 24.0115 42.7894 24.3115 43.7993 25.088L46.547 27.2292C47.551 28.0056 49.0305 27.835 49.8408 26.8586C50.651 25.8762 50.5159 24.388 49.5648 23.5586L46.9345 21.2644C45.9716 20.4292 45.3317 18.7115 45.5019 17.4586L45.9658 13.9939L45.9599 13.9997Z" fill="#095A94"/>
</g>
<mask id="mask2_1246_132" style="mask-type:luminance" maskUnits="userSpaceOnUse" x="28" y="32" width="26" height="27">
<path d="M53.2577 32.082H28.1583V58.835H53.2577V32.082Z" fill="white"/>
</mask>
<g mask="url(#mask2_1246_132)">
<path d="M51.0384 37.2114C51.8017 35.3761 50.9445 33.2173 49.1479 32.4055C47.3513 31.5937 45.1555 32.382 44.2983 34.1643L41.9204 39.0761C41.0632 40.8584 38.7559 42.529 36.7831 42.782L31.4051 43.482C29.4324 43.7349 27.9939 45.5584 28.1877 47.5349C28.3873 49.5055 30.1721 50.9996 32.1449 50.8584L37.564 50.4702C39.5367 50.329 42.1377 51.4996 43.3354 53.0761L46.6409 57.3996C47.8504 58.9761 50.1402 59.3173 51.7489 58.1643C53.3517 57.0055 53.7568 54.7114 52.653 53.0761L49.6 48.5643C48.4903 46.9232 48.1968 44.082 48.96 42.2467L51.056 37.2173L51.0384 37.2114Z" fill="#095A94"/>
</g>
<mask id="mask3_1246_132" style="mask-type:luminance" maskUnits="userSpaceOnUse" x="0" y="11" width="18" height="18">
<path d="M17.1086 11.6177H0.66333V28.6353H17.1086V11.6177Z" fill="white"/>
</mask>
<g mask="url(#mask3_1246_132)">
<path d="M14.8071 14.7354C15.2005 13.5236 14.5546 12.1825 13.3686 11.7531C12.1709 11.3178 10.8147 11.9295 10.3508 13.1178L9.07678 16.3648C8.60121 17.5472 7.20386 18.7237 5.96504 18.9884L2.55387 19.7001C1.30917 19.9531 0.487194 21.1942 0.704429 22.4413C0.921663 23.6942 2.13701 24.5589 3.38758 24.3766L6.84572 23.8589C8.09629 23.6766 9.81655 24.3001 10.6561 25.2472L12.9753 27.8531C13.8207 28.7942 15.3061 28.9001 16.2749 28.0884C17.2495 27.2707 17.3963 25.7884 16.6037 24.7942L14.4372 22.0589C13.6387 21.0648 13.3217 19.2589 13.715 18.0531L14.8071 14.7413V14.7354Z" fill="#095A94"/>
</g>
<mask id="mask4_1246_132" style="mask-type:luminance" maskUnits="userSpaceOnUse" x="20" y="0" width="17" height="18">
<path d="M36.4895 0H20.5726V17.1882H36.4895V0Z" fill="white"/>
</mask>
<g mask="url(#mask4_1246_132)">
<path d="M24.8645 0.988265C24.1189 -0.0411471 22.6628 -0.311732 21.6177 0.39415C20.5668 1.10592 20.2497 2.56474 20.9308 3.64121L22.7978 6.59415C23.4613 7.66474 23.5904 9.49414 23.0679 10.653L21.6295 13.8295C21.0952 14.9883 21.6001 16.3942 22.7332 16.9471C23.8723 17.5118 25.2872 17.0471 25.8743 15.9236L27.5065 12.8353C28.0878 11.7059 29.6084 10.6883 30.8766 10.5647L34.3465 10.2294C35.6088 10.1 36.5658 8.96474 36.4836 7.70003C36.3956 6.42944 35.2859 5.43532 34.0294 5.48826L30.542 5.62945C29.2738 5.67651 27.6298 4.87062 26.8959 3.83532L24.8645 0.988265Z" fill="#095A94"/>
</g>
<mask id="mask5_1246_132" style="mask-type:luminance" maskUnits="userSpaceOnUse" x="20" y="23" width="17" height="18">
<path d="M36.5835 23.8291H20.1089V40.835H36.5835V23.8291Z" fill="white"/>
</mask>
<g mask="url(#mask5_1246_132)">
<path d="M26.9665 25.3467C26.5202 24.1644 25.1581 23.5409 23.9604 23.9644C22.7744 24.3879 22.111 25.7232 22.4926 26.935L23.5612 30.2644C23.9545 31.4703 23.6257 33.2703 22.8155 34.2585L20.6373 36.9761C19.8329 37.9644 19.9738 39.4467 20.9367 40.2703C21.8996 41.0938 23.385 40.9997 24.2363 40.0585L26.579 37.4762C27.4362 36.5291 29.1564 35.9232 30.4129 36.1173L33.8475 36.6585C35.104 36.8526 36.3134 35.9938 36.5483 34.7467C36.7773 33.4997 35.9494 32.2585 34.7106 31.9938L31.317 31.2585C30.0782 30.982 28.6809 29.7997 28.2288 28.6173L26.9723 25.3526L26.9665 25.3467Z" fill="#095A94"/>
</g>
<mask id="mask6_1246_132" style="mask-type:luminance" maskUnits="userSpaceOnUse" x="0" y="32" width="17" height="18">
<path d="M16.9913 32.7705H0V49.2293H16.9913V32.7705Z" fill="white"/>
</mask>
<g mask="url(#mask6_1246_132)">
<path d="M12.7053 35.4881C12.8814 34.2352 12.0066 33.0235 10.7561 32.7999C9.50551 32.5823 8.27842 33.4234 8.02596 34.6705L7.33316 38.094C7.08069 39.3352 5.90644 40.7411 4.72046 41.2176L1.48543 42.5117C0.317054 42.9764 -0.299422 44.3411 0.14679 45.5352C0.575388 46.7293 1.91403 47.3705 3.12937 46.9705L6.43486 45.8646C7.62672 45.4646 9.42917 45.7764 10.4273 46.5646L13.1633 48.7293C14.1614 49.5176 15.635 49.3587 16.4511 48.3882C17.2614 47.4176 17.1616 45.9234 16.2046 45.0881L13.5977 42.7705C12.6407 41.9234 12.0184 40.2117 12.2063 38.9529L12.7112 35.494L12.7053 35.4881Z" fill="#095A94"/>
</g>
</svg>
