<svg width="165" height="183" viewBox="0 0 165 183" fill="none" xmlns="http://www.w3.org/2000/svg">
<mask id="mask0_1246_134" style="mask-type:luminance" maskUnits="userSpaceOnUse" x="103" y="35" width="53" height="52">
<path d="M155.767 35.4792H103.186V86.1915H155.767V35.4792Z" fill="white"/>
</mask>
<g mask="url(#mask0_1246_134)">
<path d="M142.178 43.801C142.704 39.9308 139.983 36.2241 136.118 35.57C132.235 34.9341 128.479 37.5506 127.735 41.4026L125.667 51.9957C124.923 55.8477 121.349 60.2266 117.702 61.6984L107.741 65.7866C104.094 67.2947 102.298 71.5102 103.658 75.1623C105.055 78.8327 109.192 80.795 112.912 79.5231L123.109 75.9981C126.828 74.7262 132.38 75.6529 135.501 78.0513L143.992 84.6652C147.095 87.0637 151.667 86.5367 154.171 83.5205C156.675 80.4861 156.258 75.8891 153.318 73.3272L145.19 66.2409C142.214 63.6608 140.237 58.3551 140.763 54.4849L142.196 43.7829L142.178 43.801Z" fill="#0C70B8"/>
</g>
<mask id="mask1_1246_134" style="mask-type:luminance" maskUnits="userSpaceOnUse" x="87" y="99" width="78" height="84">
<path d="M164.73 99.6555H87.1651V182.292H164.73V99.6555Z" fill="white"/>
</mask>
<g mask="url(#mask1_1246_134)">
<path d="M157.872 115.5C160.231 109.831 157.582 103.162 152.03 100.655C146.478 98.1473 139.692 100.582 137.043 106.088L129.694 121.259C127.045 126.765 119.915 131.925 113.819 132.707L97.1987 134.869C91.1024 135.65 86.6571 141.283 87.2558 147.388C87.8727 153.475 93.3885 158.09 99.4848 157.654L116.232 156.455C122.328 156.019 130.366 159.634 134.067 164.504L144.282 177.859C148.02 182.728 155.096 183.782 160.067 180.221C165.021 176.641 166.273 169.555 162.862 164.504L153.427 150.568C149.998 145.498 149.09 136.722 151.449 131.053L157.926 115.518L157.872 115.5Z" fill="#0C70B8"/>
</g>
<mask id="mask2_1246_134" style="mask-type:luminance" maskUnits="userSpaceOnUse" x="2" y="36" width="52" height="54">
<path d="M53.0182 36.4423H2.19705V89.0079H53.0182V36.4423Z" fill="white"/>
</mask>
<g mask="url(#mask2_1246_134)">
<path d="M45.9058 46.0723C47.1214 42.3293 45.1256 38.1866 41.4605 36.8602C37.7592 35.5156 33.5679 37.4052 32.1346 41.0756L28.1973 51.1054C26.7277 54.7576 22.4094 58.3915 18.581 59.2092L8.03941 61.4077C4.19289 62.189 1.65273 66.0229 2.32405 69.8749C2.99538 73.7451 6.75118 76.4161 10.6158 75.8528L21.3026 74.2539C25.1673 73.6906 30.4834 75.6167 33.078 78.542L40.2449 86.5913C42.8576 89.4985 47.448 89.8255 50.4418 87.3181C53.4537 84.7925 53.9073 80.2136 51.4578 77.1429L44.7627 68.6939C42.2951 65.6232 41.3154 60.045 42.531 56.3202L45.9058 46.0905V46.0723Z" fill="#0C70B8"/>
</g>
<mask id="mask3_1246_134" style="mask-type:luminance" maskUnits="userSpaceOnUse" x="63" y="0" width="50" height="54">
<path d="M112.911 0.556641H63.7231V53.6492H112.911V0.556641Z" fill="white"/>
</mask>
<g mask="url(#mask3_1246_134)">
<path d="M76.9864 3.60918C74.6821 0.429437 70.1824 -0.40637 66.9528 1.77402C63.705 3.97258 62.7252 8.47874 64.8299 11.8038L70.5997 20.9251C72.65 24.232 73.0491 29.8829 71.4343 33.4624L66.989 43.2742C65.3379 46.8537 66.8983 51.1962 70.4001 52.9042C73.92 54.6485 78.2927 53.2131 80.1071 49.7427L85.1511 40.2035C86.9474 36.7148 91.6466 33.5714 95.5657 33.1898L106.289 32.1541C110.19 31.7544 113.147 28.2476 112.893 24.3411C112.621 20.4164 109.192 17.3456 105.309 17.5092L94.5315 17.9453C90.6125 18.0906 85.5321 15.6013 83.2641 12.4034L76.9864 3.60918Z" fill="#0C70B8"/>
</g>
<mask id="mask4_1246_134" style="mask-type:luminance" maskUnits="userSpaceOnUse" x="62" y="74" width="52" height="53">
<path d="M113.202 74.163H62.2898V126.692H113.202V74.163Z" fill="white"/>
</mask>
<g mask="url(#mask4_1246_134)">
<path d="M83.4819 78.8509C82.1029 75.1987 77.8935 73.2727 74.1922 74.5809C70.5271 75.8892 68.4768 80.0138 69.6562 83.7568L72.9584 94.041C74.1741 97.7658 73.158 103.326 70.6541 106.378L63.9227 114.773C61.437 117.825 61.8725 122.404 64.8481 124.948C67.8237 127.492 72.4141 127.201 75.045 124.294L82.2844 116.317C84.9334 113.392 90.2496 111.52 94.1324 112.12L104.747 113.792C108.629 114.391 112.367 111.738 113.093 107.886C113.8 104.034 111.242 100.201 107.414 99.3829L96.9265 97.1116C93.0982 96.2576 88.7799 92.6055 87.3828 88.9534L83.5 78.8691L83.4819 78.8509Z" fill="#AFCA15"/>
</g>
<mask id="mask5_1246_134" style="mask-type:luminance" maskUnits="userSpaceOnUse" x="0" y="101" width="53" height="52">
<path d="M52.6554 101.781H0.14679V152.621H52.6554V101.781Z" fill="white"/>
</mask>
<g mask="url(#mask5_1246_134)">
<path d="M39.4103 110.176C39.9546 106.306 37.2512 102.563 33.3865 101.872C29.5218 101.2 25.7297 103.798 24.9495 107.65L22.8086 118.225C22.0284 122.059 18.3996 126.402 14.7345 127.873L4.7372 131.871C1.12656 133.306 -0.778553 137.522 0.600387 141.21C1.92489 144.899 6.06172 146.879 9.81751 145.644L20.0326 142.228C23.7158 140.992 29.2859 141.955 32.3704 144.39L40.8255 151.076C43.91 153.511 48.4641 153.021 50.9861 150.023C53.49 147.024 53.1815 142.409 50.2241 139.829L42.1682 132.67C39.2107 130.054 37.2874 124.766 37.868 120.878L39.4284 110.194L39.4103 110.176Z" fill="#0C70B8"/>
</g>
</svg>
